HIERARCHY
ROOT Hips
{
  OFFSET -9.65859 97.6334 178.195
  CHANNELS 6 Xposition Yposition Zposition Zrotation Xrotation Yrotation
  JOINT RightUpLeg
  {
    OFFSET -8.9458 -8.66707 0.101652
    CHANNELS 3 Zrotation Xrotation Yrotation
    JOINT RightLeg
    {
      OFFSET 0 -44.4227 1.3727
      CHANNELS 3 Zrotation Xrotation Yrotation
      JOINT RightFoot
      {
        OFFSET 0.253549 -42.0924 -1.46059
        CHANNELS 3 Zrotation Xrotation Yrotation
        JOINT RightToes
        {
          OFFSET 0.04 -4.41509 8.4991
          CHANNELS 3 Zrotation Xrotation Yrotation
          End Site
          {
            OFFSET -0.08 -0.137448 9.77979
          }
        }
      }
    }
  }
  JOINT Spine
  {
    OFFSET 0 11.8905 0
    CHANNELS 3 Zrotation Xrotation Yrotation
    JOINT Spine1
    {
      OFFSET 0 25.6574 0.127663
      CHANNELS 3 Zrotation Xrotation Yrotation
      JOINT HEad
      {
        OFFSET 0 8.73416 0.011341
        CHANNELS 3 Zrotation Xrotation Yrotation
        End Site
        {
          OFFSET -0.29 12.7742 2.51395
        }
      }
      JOINT LeftShoulder1
      {
        OFFSET 8.99 -0.362252 -0.22
        CHANNELS 3 Zrotation Xrotation Yrotation
        JOINT LeftArm
        {
          OFFSET 10.2827 -0.00338 0.322123
          CHANNELS 3 Zrotation Xrotation Yrotation
          JOINT LeftForeArm
          {
            OFFSET 32.7669 0.099144 -1.42434
            CHANNELS 3 Zrotation Xrotation Yrotation
            JOINT LeftHand
            {
              OFFSET 27.5643 0.085362 1.02216
              CHANNELS 3 Zrotation Xrotation Yrotation
              End Site
              {
                OFFSET 16.7443 -0.6 1.50291
              }
            }
          }
        }
      }
      JOINT RightShoulder
      {
        OFFSET -8.99 -0.362252 -0.22
        CHANNELS 3 Zrotation Xrotation Yrotation
        JOINT RightArm
        {
          OFFSET -10.2827 -0.00338 0.322123
          CHANNELS 3 Zrotation Xrotation Yrotation
          JOINT RightForeArm
          {
            OFFSET -32.8971 0.099144 -1.42434
            CHANNELS 3 Zrotation Xrotation Yrotation
            JOINT RightHand
            {
              OFFSET -27.4921 0.085362 1.02216
              CHANNELS 3 Zrotation Xrotation Yrotation
              End Site
              {
                OFFSET -16.6312 -0.6 1.50291
              }
            }
          }
        }
      }
    }
  }
  JOINT LeftUpLeg
  {
    OFFSET 8.9458 -8.66707 0.101652
    CHANNELS 3 Zrotation Xrotation Yrotation
    JOINT LeftLeg
    {
      OFFSET 0 -44.4227 1.3727
      CHANNELS 3 Zrotation Xrotation Yrotation
      JOINT LeftFoot
      {
        OFFSET -0.253549 -42.0924 -1.46059
        CHANNELS 3 Zrotation Xrotation Yrotation
        JOINT LeftToes
        {
          OFFSET -0.04 -4.41509 8.4991
          CHANNELS 3 Zrotation Xrotation Yrotation
          End Site
          {
            OFFSET 0.08 -0.047448 9.77979
          }
        }
      }
    }
  }
}
MOTION
Frames:	12
Frame Time:	0.0166667
-9.95929 98.0151 175.051 -8.72692 -13.8622 -32.651 -20.0811 6.75281 -0.0724223 18.8755 25.2436 -19.4181 53.9442 1.99396 -1.71091 0.0462048 0.000533403 0.662642 -1.54341 24.9493 -6.93683 1.27623e-006 -1.26899e-006 -0.01689 -3.41978 12.0716 2.04381 -7.95139e-016 7.95139e-016 -6.36111e-015 -135.468 -51.9711 -102.944 -63.4892 59.5687 -42.7832 22.8588 16.3669 -18.963 15.1262 9.02182 -1.84952 106.663 -13.7498 76.9102 38.2999 53.5819 78.5836 14.0782 20.2459 6.2084 18.3093 -14.5341 -25.4672 -30.6995 11.3059 62.6565 -3.02017 -5.35746 -0.86373 -1.18447e-009 1.5602e-007 -4.87131e-009 
-9.85207 97.8707 176.085 -9.22967 -13.6433 -34.3818 -20.0492 6.73924 1.27706 18.6767 25.1462 -19.4714 56.5359 2.11617 -1.88844 0.0462048 0.000533403 0.662642 -1.44963 25.0736 -5.55426 1.27624e-006 -1.26899e-006 -0.01669 -3.55646 11.9445 2.79443 -7.95139e-016 7.95139e-016 6.36111e-015 -135.223 -51.4505 -102.693 -64.7771 59.7181 -41.6172 22.7811 16.1657 -19.1065 15.3716 8.63668 -3.03532 106.863 -13.3221 76.5382 38.4747 53.9533 78.5264 14.0652 20.3398 6.11506 18.5231 -14.9398 -23.8019 -31.8772 12.9953 60.4479 -1.6955 -5.18038 -0.882758 -1.18447e-009 1.5602e-007 -4.87131e-009 
-9.75218 97.7575 177.109 -9.70925 -13.4038 -36.1222 -20.0131 6.75275 2.62662 18.4735 24.9162 -19.6073 58.8442 2.22481 -2.06564 0.0462048 0.000533403 0.662642 -1.40942 25.1772 -4.34313 1.12436e-006 -0.000531244 -0.0164199 -3.64859 11.8195 3.58096 -2.38542e-015 3.18055e-015 9.54166e-015 -135.073 -51.0992 -102.62 -65.9174 59.8252 -40.6559 23.0721 16.1545 -19.3133 15.4715 8.30971 -3.95666 107.1 -12.9323 76.1643 38.6051 54.2637 78.5123 14.1153 20.332 5.82307 19.0219 -15.3133 -22.1922 -32.5624 14.4996 58.8889 -2.06396 -5.27184 -0.922946 -1.18447e-009 1.5602e-007 -4.87131e-009 
-9.65859 97.6334 178.195 -10.1666 -13.1526 -37.8762 -20.0464 6.78068 3.99231 18.3394 24.6657 -19.8088 60.8851 2.25979 -2.16448 0.0462048 0.000533403 0.662642 -1.30511 25.6105 -4.81285 0.000108604 0.0589621 -0.104294 -4.09957 11.16 5.95548 7.95139e-016 7.95139e-016 -0 -136.91 -51.7479 -105.021 -66.9453 59.9073 -39.9124 22.94 16.1789 -19.3696 15.2289 8.05625 -3.00082 107.284 -12.5764 75.8215 38.6403 54.502 78.5517 14.1224 20.5025 5.77913 19.481 -15.8015 -20.6562 -34.2826 16.8222 57.0949 -0.421803 -4.85961 -0.869775 -1.18447e-009 1.5602e-007 -4.87131e-009 
-9.57829 97.5554 179.251 -10.6102 -12.8708 -39.6289 -20.1995 6.67212 5.36008 20.0581 24.1699 -22.0876 60.9154 2.066 -2.07538 0.0462048 0.000533403 0.662642 -1.2364 25.5884 -5.46502 1.40436e-006 0.00427988 -0.00171031 -4.49645 11.0443 8.21664 -1.59028e-015 -1.59028e-015 -3.18055e-015 -138.34 -52.829 -106.869 -67.9289 59.966 -39.3057 23.0904 16.0257 -19.4194 14.9712 8.36044 -2.2052 107.448 -12.1721 75.5301 38.6225 54.6735 78.5753 14.1986 20.4997 5.45028 20.019 -16.1256 -19.2521 -35.3713 18.813 55.5776 1.03187 -4.69934 -0.742456 -1.18446e-009 1.5602e-007 -4.87131e-009 
-9.50119 97.4581 180.289 -11.0436 -12.5401 -41.3626 -20.4937 6.71571 6.68724 21.0395 23.6317 -23.7516 61.3887 1.95972 -2.0624 0.0462048 0.000533403 0.662642 -1.19305 25.5348 -5.97645 1.19966e-006 0.00116029 0.00379991 -4.7994 10.8884 10.2729 -4.41391e-032 7.95139e-016 3.18055e-015 -139.781 -53.8489 -108.76 -68.7196 60.0392 -38.9165 23.1816 16.1843 -19.4444 14.8279 8.60175 -1.32258 107.483 -11.8646 75.301 38.6245 54.7493 78.5308 14.2296 20.4723 5.47738 20.6035 -16.2891 -17.9954 -36.1156 20.488 54.3725 2.41641 -4.53226 -0.644628 -1.18446e-009 1.5602e-007 -4.87132e-009 
-9.42909 97.334 181.319 -11.4694 -12.1482 -43.0617 -20.825 6.81968 7.94332 21.5818 23.0784 -24.9701 62.0133 1.90373 -2.06622 0.0462048 0.000533403 0.662642 -1.14641 25.447 -6.36837 1.13699e-006 0.00139038 0.00575352 -4.9898 10.7518 12.048 1.59028e-015 -3.18055e-015 -3.18055e-015 -141.275 -54.7992 -110.678 -69.6166 60.1094 -38.4616 23.1967 15.9816 -19.3287 14.6989 8.83082 -0.537952 107.542 -11.5508 75.1339 38.6735 54.7592 78.3954 14.3093 20.4661 5.27506 21.1506 -16.248 -16.9242 -36.6095 21.8026 53.4409 3.80217 -4.41548 -0.541883 -1.18446e-009 1.5602e-007 -4.87131e-009 
-9.34673 97.1814 182.342 -11.8758 -11.7018 -44.7086 -21.137 6.9175 9.11341 21.9061 22.5107 -25.9127 62.5814 1.86697 -2.07518 0.0462048 0.000533403 0.662642 -1.09718 25.3316 -6.66007 -0.00016894 0.00193041 0.00617176 -5.07663 10.6397 13.5473 -7.95139e-016 1.59028e-015 -0 -142.754 -55.6524 -112.567 -70.4933 60.1791 -37.9953 23.3426 16.0989 -19.4387 14.6358 9.04411 0.0782469 107.552 -11.1794 75.0096 38.7198 54.73 78.2294 14.2878 20.5331 5.21706 21.5901 -16.0135 -16.0547 -36.8826 22.7503 52.7607 5.22742 -4.34205 -0.43322 -1.18446e-009 1.5602e-007 -4.87132e-009 
-9.27925 97.0106 183.288 -12.2921 -11.2085 -46.3258 -21.3703 7.08184 10.2069 21.5638 22.0669 -25.8401 63.5804 1.88253 -2.1217 0.0462048 0.000533403 0.662642 -1.29669 24.6128 -6.73647 -0.00920955 -0.0407096 0.00589995 -5.1934 10.7553 15.2356 -4.41391e-032 -7.95139e-016 -3.18055e-015 -142.523 -56.2343 -114.269 -67.8679 58.9712 -40.9949 27.623 20.1487 -22.2357 14.4819 6.70514 3.39354 106.097 -14.0129 72.7769 37.7188 54.4538 77.6186 16.2182 21.3513 -0.630114 21.5833 -15.6624 -15.0272 -36.4812 24.3607 51.2373 6.2153 -4.32017 -0.353229 -1.18446e-009 1.5602e-007 -4.87131e-009 
-9.14379 96.7861 184.22 -12.7125 -10.679 -47.91 -21.4671 7.23542 11.2159 20.7552 21.6408 -24.9172 64.8127 1.93127 -2.19485 0.0462048 0.000533403 0.662642 -1.6965 23.3274 -6.62624 -0.00894988 -0.0418996 0.00578341 -5.35265 10.9856 17.0857 -7.95139e-016 1.59028e-015 -3.18055e-015 -140.714 -56.5436 -115.693 -62.8207 56.6094 -46.2911 33.3365 25.6373 -27.0459 14.8792 2.59821 8.42604 102.833 -18.6704 68.5569 35.9216 53.9625 76.5935 18.575 22.1806 -8.77752 21.1377 -15.3179 -13.8327 -35.324 26.5181 48.8841 6.82735 -4.34162 -0.287215 -1.18447e-009 1.5602e-007 -4.8713e-009 
-8.96406 96.536 185.154 -13.1229 -10.1348 -49.4596 -21.4116 7.35299 12.1399 19.5856 21.1556 -23.25 66.1792 2.00454 -2.29353 0.0462048 0.000533403 0.662642 -2.24951 21.5147 -6.36613 -0.00685988 -0.0402796 0.00577323 -5.54696 11.3334 19.0812 -7.95139e-016 -7.95139e-016 3.18055e-015 -137.368 -56.6098 -116.602 -56.4387 53.2406 -52.6587 33.7199 28.5863 -27.0785 16.3672 -2.57914 14.4946 96.9245 -24.1202 63.1748 33.7506 53.2205 75.0321 20.5489 22.7086 -17.5761 20.2614 -15.0759 -12.4596 -33.334 29.1372 45.6723 7.11011 -4.39184 -0.223381 -1.18447e-009 1.5602e-007 -4.87131e-009 
-8.79329 96.26 186.084 -13.5479 -9.59406 -50.8902 -21.0877 7.58892 12.8051 17.2587 20.7707 -19.0379 68.4597 2.16624 -2.47766 0.0462048 0.000533403 0.662642 -3.27285 18.0681 -5.63858 -0.0207682 -0.109258 0.0221888 -5.87647 12.0839 21.5074 -7.95139e-016 -1.19271e-015 6.36111e-015 -129.822 -55.5626 -115.723 -46.5435 47.8819 -61.6042 22.4337 25.7433 -15.5442 21.0055 -9.77094 22.7041 83.8857 -28.9851 51.3299 31.0597 51.3707 71.5607 9.55589 21.7486 -3.06133 19.1269 -15.0913 -11.1484 -30.1919 32.895 40.4769 6.2306 -4.49373 -0.214771 -1.18447e-009 1.5602e-007 -4.87132e-009 
